<svg xmlns="http://www.w3.org/2000/svg" version="1.1" width="1024" height="768" style="overflow: hidden;"><defs></defs><g id="two_1001" transform="matrix(1 0 0 1 0 0)" opacity="1"><path transform="matrix(1 0 0 1 100 350)" d="M -5 -125 L 5 -125 L 6.95 -124.808 L 8.826 -124.239 L 10.555 -123.315 L 12.071 -122.072 L 13.314 -120.556 L 14.238 -118.827 L 14.807 -116.951 L 15 -115 L 15 115 L 14.807 116.95 L 14.238 118.826 L 13.314 120.555 L 12.071 122.071 L 10.555 123.314 L 8.826 124.238 L 6.95 124.807 L 5 125 L -5 125 L -6.951 124.807 L -8.827 124.238 L -10.556 123.314 L -12.072 122.071 L -13.315 120.555 L -14.239 118.826 L -14.808 116.95 L -15 115 L -15 -115 L -14.808 -116.951 L -14.239 -118.827 L -13.315 -120.556 L -12.072 -122.072 L -10.556 -123.315 L -8.827 -124.239 L -6.951 -124.808 Z " fill="rgb(0, 200, 255)" stroke="transparent" stroke-width="1" stroke-opacity="1" fill-opacity="1" visibility="visible" stroke-linecap="butt" stroke-linejoin="miter" stroke-miterlimit="4" id="two_1002"></path><path transform="matrix(1 0 0 1 100 445)" d="M 7.5 0 C 7.5 1.894 6.642 3.963 5.303 5.303 C 3.963 6.642 1.894 7.5 0 7.5 C -1.895 7.5 -3.964 6.642 -5.304 5.303 C -6.643 3.963 -7.5 1.894 -7.5 0 C -7.5 -1.895 -6.643 -3.964 -5.304 -5.304 C -3.964 -6.643 -1.895 -7.5 -0.001 -7.5 C 1.894 -7.5 3.963 -6.643 5.303 -5.304 C 6.642 -3.964 7.5 -1.895 7.5 0 Z " fill="rgb(200, 200, 200)" stroke="transparent" stroke-width="1" stroke-opacity="1" fill-opacity="1" visibility="visible" stroke-linecap="butt" stroke-linejoin="miter" stroke-miterlimit="4" id="two_1003"></path><path transform="matrix(1 0 0 1 100 255)" d="M 7.5 0 C 7.5 1.894 6.642 3.963 5.303 5.303 C 3.963 6.642 1.894 7.5 0 7.5 C -1.895 7.5 -3.964 6.642 -5.304 5.303 C -6.643 3.963 -7.5 1.894 -7.5 0 C -7.5 -1.895 -6.643 -3.964 -5.304 -5.304 C -3.964 -6.643 -1.895 -7.5 -0.001 -7.5 C 1.894 -7.5 3.963 -6.643 5.303 -5.304 C 6.642 -3.964 7.5 -1.895 7.5 0 Z " fill="rgb(200, 200, 200)" stroke="transparent" stroke-width="1" stroke-opacity="1" fill-opacity="1" visibility="visible" stroke-linecap="butt" stroke-linejoin="miter" stroke-miterlimit="4" id="two_1004"></path><path transform="matrix(1 0 0 1 85 75)" d="M 0 0 L 5 0 L 10 160 L 0 160 Z " fill="rgb(0, 200, 255)" stroke="transparent" stroke-width="1" stroke-opacity="1" fill-opacity="1" visibility="visible" stroke-linecap="butt" stroke-linejoin="miter" stroke-miterlimit="4" id="two_1005"></path><text transform="matrix(0 -1 1 0 100 350)" font-family="sans-serif" font-size="20" line-height="17" text-anchor="middle" dominant-baseline="middle" alignment-baseline="middle" font-style="normal" font-weight="500" text-decoration="none" fill="#000" stroke="transparent" stroke-width="1" opacity="1" visibility="visible" id="two_1006">Pickgen V1</text><g id="two_1007" transform="matrix(1 0 0 1 87.497 109.919)" opacity="1"><path transform="matrix(1 0 0 1 7.5 0)" d="M -7.5 -35 L 7.5 -35 L 7.5 35 L -7.5 35 Z " fill="rgb(0, 200, 255)" stroke="transparent" stroke-width="1" stroke-opacity="1" fill-opacity="1" visibility="visible" stroke-linecap="butt" stroke-linejoin="miter" stroke-miterlimit="4" id="two_1008"></path><path transform="matrix(1 0 0 1 15 20)" d="M 7.5 0 C 7.5 1.894 6.642 3.963 5.303 5.303 C 3.963 6.642 1.894 7.5 0 7.5 C -1.895 7.5 -3.964 6.642 -5.304 5.303 C -6.643 3.963 -7.5 1.894 -7.5 0 C -7.5 -1.895 -6.643 -3.964 -5.304 -5.304 C -3.964 -6.643 -1.895 -7.5 -0.001 -7.5 C 1.894 -7.5 3.963 -6.643 5.303 -5.304 C 6.642 -3.964 7.5 -1.895 7.5 0 Z " fill="rgb(255, 255, 255)" stroke="transparent" stroke-width="1" stroke-opacity="1" fill-opacity="1" visibility="visible" stroke-linecap="butt" stroke-linejoin="miter" stroke-miterlimit="4" id="two_1009"></path><path transform="matrix(1 0 0 1 15 5)" d="M 7.5 0 C 7.5 1.894 6.642 3.963 5.303 5.303 C 3.963 6.642 1.894 7.5 0 7.5 C -1.895 7.5 -3.964 6.642 -5.304 5.303 C -6.643 3.963 -7.5 1.894 -7.5 0 C -7.5 -1.895 -6.643 -3.964 -5.304 -5.304 C -3.964 -6.643 -1.895 -7.5 -0.001 -7.5 C 1.894 -7.5 3.963 -6.643 5.303 -5.304 C 6.642 -3.964 7.5 -1.895 7.5 0 Z " fill="rgb(255, 255, 255)" stroke="transparent" stroke-width="1" stroke-opacity="1" fill-opacity="1" visibility="visible" stroke-linecap="butt" stroke-linejoin="miter" stroke-miterlimit="4" id="two_1010"></path><path transform="matrix(1 0 0 1 15 -10)" d="M 7.5 0 C 7.5 1.894 6.642 3.963 5.303 5.303 C 3.963 6.642 1.894 7.5 0 7.5 C -1.895 7.5 -3.964 6.642 -5.304 5.303 C -6.643 3.963 -7.5 1.894 -7.5 0 C -7.5 -1.895 -6.643 -3.964 -5.304 -5.304 C -3.964 -6.643 -1.895 -7.5 -0.001 -7.5 C 1.894 -7.5 3.963 -6.643 5.303 -5.304 C 6.642 -3.964 7.5 -1.895 7.5 0 Z " fill="rgb(255, 255, 255)" stroke="transparent" stroke-width="1" stroke-opacity="1" fill-opacity="1" visibility="visible" stroke-linecap="butt" stroke-linejoin="miter" stroke-miterlimit="4" id="two_1011"></path><path transform="matrix(1 0 0 1 15 -25)" d="M 7.5 0 C 7.5 1.894 6.642 3.963 5.303 5.303 C 3.963 6.642 1.894 7.5 0 7.5 C -1.895 7.5 -3.964 6.642 -5.304 5.303 C -6.643 3.963 -7.5 1.894 -7.5 0 C -7.5 -1.895 -6.643 -3.964 -5.304 -5.304 C -3.964 -6.643 -1.895 -7.5 -0.001 -7.5 C 1.894 -7.5 3.963 -6.643 5.303 -5.304 C 6.642 -3.964 7.5 -1.895 7.5 0 Z " fill="rgb(255, 255, 255)" stroke="transparent" stroke-width="1" stroke-opacity="1" fill-opacity="1" visibility="visible" stroke-linecap="butt" stroke-linejoin="miter" stroke-miterlimit="4" id="two_1012"></path><path transform="matrix(1 0 0 1 15 -40)" d="M 7.5 0 C 7.5 1.894 6.642 3.963 5.303 5.303 C 3.963 6.642 1.894 7.5 0 7.5 C -1.895 7.5 -3.964 6.642 -5.304 5.303 C -6.643 3.963 -7.5 1.894 -7.5 0 C -7.5 -1.895 -6.643 -3.964 -5.304 -5.304 C -3.964 -6.643 -1.895 -7.5 -0.001 -7.5 C 1.894 -7.5 3.963 -6.643 5.303 -5.304 C 6.642 -3.964 7.5 -1.895 7.5 0 Z " fill="rgb(255, 255, 255)" stroke="transparent" stroke-width="1" stroke-opacity="1" fill-opacity="1" visibility="visible" stroke-linecap="butt" stroke-linejoin="miter" stroke-miterlimit="4" id="two_1013"></path></g></g></svg>